PathFileType	4	(X/Y/Z)	/Users/itak/Documents/Research/Walk-IL/dataset/trc/00281_00010.trc
DataRate	CameraRate	NumFrames	NumMarkers	Units	OrigDataRate	OrigDataStartFrame	OrigNumFrames
100.000000	100.000000	4	54	mm	100.000000	307	614
Frame#	Time	RPSI			LPSI			L3			STRN			T10			C7			CLAV			RBAK			LBAK			LSHO			LUPA			LAEL			LAOL			LWTS			LWPS			LFRA			LIFD			LHPS			LHTS			RSHO			RUPA			RAEL			RAOL			RWTS			RWPS			RFRA			RIFD			RHTS			RHPS			RBHD			LFHD			RFHD			LBHD			LHIP			RASI			LASI			LKNE			LTHI			LANK			LTIP			LTOE			LMT1			LMT5			LHEE			RKNE			RTHI			RANK			RTIP			RTOE			RMT1			RMT5			RHEE			RHIP			*53			
		X1	Y1	Z1	X2	Y2	Z2	X3	Y3	Z3	X4	Y4	Z4	X5	Y5	Z5	X6	Y6	Z6	X7	Y7	Z7	X8	Y8	Z8	X9	Y9	Z9	X10	Y10	Z10	X11	Y11	Z11	X12	Y12	Z12	X13	Y13	Z13	X14	Y14	Z14	X15	Y15	Z15	X16	Y16	Z16	X17	Y17	Z17	X18	Y18	Z18	X19	Y19	Z19	X20	Y20	Z20	X21	Y21	Z21	X22	Y22	Z22	X23	Y23	Z23	X24	Y24	Z24	X25	Y25	Z25	X26	Y26	Z26	X27	Y27	Z27	X28	Y28	Z28	X29	Y29	Z29	X30	Y30	Z30	X31	Y31	Z31	X32	Y32	Z32	X33	Y33	Z33	X34	Y34	Z34	X35	Y35	Z35	X36	Y36	Z36	X37	Y37	Z37	X38	Y38	Z38	X39	Y39	Z39	X40	Y40	Z40	X41	Y41	Z41	X42	Y42	Z42	X43	Y43	Z43	X44	Y44	Z44	X45	Y45	Z45	X46	Y46	Z46	X47	Y47	Z47	X48	Y48	Z48	X49	Y49	Z49	X50	Y50	Z50	X51	Y51	Z51	X52	Y52	Z52	X53	Y53	Z53	X54	Y54	Z54	

308	3.07	219.1335296630859	979.0934448242188	-679.1027221679688	213.6963500976562	954.2261352539062	-505.7208251953125	203.7295379638672	1029.2314453125	-599.5278930664062	-19.57268524169922	1215.47607421875	-557.3453369140625	232.9572143554688	1136.647338867188	-601.372802734375	216.0644226074219	1380.31982421875	-552.5081787109375	51.27685546875	1310.734497070312	-546.4837646484375	244.6576690673828	1251.534057617188	-651.8128051757812	244.8875427246094	1329.004760742188	-459.3199462890625	164.2243957519531	1334.49609375	-392.7594909667969	213.9477386474609	1214.743774414062	-339.5791015625	240.6349639892578	1016.422058105469	-351.293701171875	274.3314514160156	1014.177490234375	-430.2591857910156	204.1776733398438	778.8986206054688	-394.8364562988281	259.896240234375	777.4851684570312	-347.3617858886719	253.4969482421875	911.7304077148438	-346.9532165527344	268.9901733398438	604.4396362304688	-424.4494934082031	285.4196166992188	694.05517578125	-361.4336242675781	225.4667358398438	677.1328735351562	-388.1076965332031	128.6566467285156	1386.107299804688	-699.0238037109375	120.7259368896484	1338.732177734375	-773.0431518554688	56.98057174682617	1099.460571289062	-880.1282348632812	93.81507873535156	1059.35693359375	-802.1013793945312	-148.0373687744141	980.4027709960938	-814.6173095703125	-131.9613189697266	960.251953125	-895.73583984375	0.6070356369018555	1058.841186523438	-893.0943603515625	-275.2155456542969	848.1546630859375	-810.8882446289062	-252.2326965332031	919.3341064453125	-825.4843139648438	-225.2733306884766	894.1646118164062	-886.4246215820312	152.7129669189453	1556.415893554688	-617.39111328125	41.9574089050293	1566.510009765625	-435.7177429199219	4.195048809051514	1571.481567382812	-521.4852294921875	209.4975128173828	1537.833862304688	-483.591552734375	139.1559295654297	902.2344970703125	-415.8316345214844	2.697808027267456	926.197021484375	-728.1290283203125	5.022986888885498	915.4568481445312	-474.3561096191406	-77.75728607177734	476.5023803710938	-505.4631958007812	-18.32007598876953	602.4363403320312	-457.9762573242188	-68.71952056884766	40.97214508056641	-600.0253295898438	-78.63927459716797	243.3909301757812	-544.0652465820312	-283.1603698730469	37.14171981811523	-633.7744750976562	-217.0273895263672	26.74362373352051	-680.8436279296875	-190.4712829589844	41.49763488769531	-573.3247680664062	-33.26474380493164	29.99847602844238	-664.3379516601562	217.6624755859375	470.3744812011719	-789.8150634765625	114.1234970092773	714.7379760742188	-800.8359375	529.9222412109375	129.0796813964844	-783.2743530273438	279.2221984863281	360.1223449707031	-790.1591186523438	385.0804443359375	37.75014114379883	-729.1404418945312	420.3305053710938	55.90156936645508	-689.07421875	459.93994140625	50.60951614379883	-802.5935668945312	564.4370727539062	165.4920959472656	-732.2967529296875	127.7349319458008	926.1333618164062	-788.1054077148438	nan	nan	nan	
309	3.08	206.8236694335938	980.7261352539062	-678.7210083007812	203.2834777832031	956.6527709960938	-505.1723327636719	192.2996978759766	1031.23974609375	-598.8294677734375	-30.36911773681641	1218.281005859375	-553.6419067382812	221.4594573974609	1138.23583984375	-600.77197265625	206.4124908447266	1381.592895507812	-551.03369140625	41.22853088378906	1313.264892578125	-543.3319702148438	233.1273040771484	1253.20703125	-650.9520874023438	235.9417724609375	1329.891845703125	-458.4528198242188	156.2036895751953	1335.9658203125	-391.0610961914062	205.6354675292969	1216.013305664062	-338.5456848144531	230.3306274414062	1017.414794921875	-350.4130859375	263.169189453125	1014.8662109375	-429.7335510253906	189.6268920898438	780.4376831054688	-393.0373229980469	246.0558319091797	778.1055908203125	-346.4361877441406	241.8372497558594	912.5184936523438	-346.1665344238281	251.3958892822266	605.0680541992188	-423.9070434570312	270.1626892089844	694.3150634765625	-360.9691162109375	209.5674896240234	678.3265991210938	-386.6942443847656	117.4977340698242	1388.672973632812	-696.3546752929688	108.916374206543	1341.765380859375	-770.5579223632812	47.62965393066406	1101.755004882812	-877.27001953125	85.81993103027344	1062.543701171875	-799.4996337890625	-153.3912353515625	975.509521484375	-810.340087890625	-137.0895233154297	956.5205078125	-891.6572265625	-7.992931842803955	1059.486572265625	-889.7562255859375	-275.2768859863281	838.3842163085938	-806.3598022460938	-255.2519226074219	910.5709228515625	-820.5820922851562	-227.9073181152344	886.9100341796875	-881.9506225585938	143.4296722412109	1558.081665039062	-614.8609619140625	35.72076416015625	1568.913452148438	-431.4507446289062	-3.511673927307129	1574.245239257812	-516.6476440429688	202.2236633300781	1538.973876953125	-482.0482788085938	130.0048370361328	904.6612548828125	-414.1875915527344	-9.986858367919922	928.5078735351562	-724.4406127929688	-4.930648803710938	917.7598266601562	-470.8662414550781	-83.78404235839844	476.7630920410156	-504.3869323730469	-26.07829856872559	603.543212890625	-456.344970703125	-69.06007385253906	41.18049621582031	-599.8917846679688	-82.25084686279297	243.6048126220703	-543.4866943359375	-283.5755004882812	36.40190505981445	-633.9689331054688	-217.0522003173828	26.81283569335938	-681.151611328125	-190.5721435546875	41.23307037353516	-573.353515625	-33.28902435302734	30.40189743041992	-664.0914306640625	196.863525390625	469.4730529785156	-790.865966796875	97.86565399169922	715.505859375	-798.9318237304688	518.4693603515625	137.8830413818359	-786.6546630859375	260.6974487304688	360.7939147949219	-791.9981079101562	383.7351684570312	37.03219985961914	-729.53662109375	416.2624816894531	58.43445205688477	-690.4790649414062	454.885009765625	54.10404205322266	-804.32373046875	550.7774658203125	176.4866485595703	-736.365966796875	114.4468078613281	927.788818359375	-785.8330688476562	nan	nan	nan	
310	3.09	195.0183868408203	982.0609130859375	-678.0233154296875	193.089599609375	958.87353515625	-504.3489685058594	181.1802215576172	1033.188720703125	-597.8165893554688	-41.01910400390625	1220.866577148438	-549.9077758789062	210.1618804931641	1139.776245117188	-599.9285278320312	196.7186126708984	1382.836181640625	-549.552734375	31.22558975219727	1315.644165039062	-540.1787109375	221.7047729492188	1254.821166992188	-649.9146728515625	226.9408264160156	1330.808349609375	-457.5269165039062	148.1123352050781	1337.428833007812	-389.3427124023438	197.3269958496094	1217.321655273438	-337.4758605957031	220.1304931640625	1018.435791015625	-349.3997192382812	252.0917053222656	1015.598999023438	-429.0815734863281	174.8113098144531	782.1548461914062	-391.0457763671875	231.8807525634766	778.7727661132812	-345.2275695800781	230.1418151855469	913.3209838867188	-345.211669921875	232.8681488037109	605.78369140625	-422.9527282714844	254.3086700439453	694.5733032226562	-360.2010803222656	193.0223083496094	679.6949462890625	-384.89990234375	106.3732757568359	1391.04541015625	-693.7149658203125	97.13623046875	1344.573852539062	-768.0798950195312	38.30673217773438	1103.868896484375	-874.45849609375	77.93276214599609	1065.569458007812	-797.0078125	-158.3259887695312	970.3641357421875	-806.2322998046875	-141.8249664306641	952.499755859375	-887.6956176757812	-16.47372817993164	1059.894287109375	-886.4776000976562	-274.4913635253906	828.3681030273438	-801.945068359375	-257.5632934570312	901.4677734375	-815.8340454101562	-229.8906555175781	879.2877807617188	-877.60205078125	134.0136413574219	1559.700073242188	-612.3439331054688	29.51222229003906	1571.145751953125	-427.1557922363281	-11.24131870269775	1576.880004882812	-511.7319946289062	194.9088439941406	1539.984375	-480.60546875	120.9805603027344	906.9202270507812	-412.3873901367188	-22.17571449279785	930.7586669921875	-720.8251342773438	-14.64127349853516	919.843017578125	-467.46533203125	-89.12038421630859	476.732177734375	-503.254150390625	-33.03778457641602	604.1890258789062	-454.72802734375	-69.30111694335938	41.33068084716797	-599.7544555664062	-85.49150085449219	243.6787261962891	-542.9065551757812	-283.8791809082031	35.94842147827148	-634.0619506835938	-217.0559844970703	26.9519100189209	-681.349853515625	-190.588134765625	41.01564025878906	-573.3211669921875	-33.25972366333008	30.80893707275391	-663.8721313476562	174.9557495117188	468.3152465820312	-791.869384765625	81.56639099121094	716.2593383789062	-797.0336303710938	505.2540893554688	147.1508178710938	-790.3860473632812	240.7766571044922	361.1194152832031	-793.6155395507812	381.4215393066406	36.12380981445312	-729.976318359375	411.5064086914062	61.33548736572266	-691.9661865234375	448.679931640625	58.41507339477539	-806.1558837890625	535.5730590820312	187.6905517578125	-740.870361328125	101.6685485839844	929.3798828125	-783.61279296875	nan	nan	nan	
311	3.1	183.7269439697266	983.0427856445312	-677.063720703125	183.1535339355469	960.9004516601562	-503.2806396484375	170.36376953125	1035.041381835938	-596.4999389648438	-51.47961044311523	1223.154418945312	-546.200927734375	199.1060180664062	1141.240234375	-598.8452758789062	186.9945678710938	1384.036254882812	-548.052001953125	21.26773834228516	1317.806396484375	-537.058349609375	210.4299011230469	1256.342895507812	-648.6905517578125	217.8852386474609	1331.739379882812	-456.5115051269531	139.9139099121094	1338.82763671875	-387.5973815917969	188.9679870605469	1218.5908203125	-336.3517456054688	210.027587890625	1019.421691894531	-348.25390625	241.1130065917969	1016.321472167969	-428.2960205078125	159.8069305419922	784.0000610351562	-388.8748168945312	217.43115234375	779.4490356445312	-343.7338256835938	218.4208526611328	914.083984375	-344.0874633789062	213.4518432617188	606.5858764648438	-421.5370788574219	237.9001312255859	694.8031616210938	-359.1107788085938	175.8957977294922	681.2149047851562	-382.7101440429688	95.31657409667969	1393.18212890625	-691.1272583007812	85.43199920654297	1347.082641601562	-765.6196899414062	28.98214721679688	1105.742431640625	-871.6898803710938	70.13010406494141	1068.366455078125	-794.6303100585938	-162.8068084716797	964.9723510742188	-802.2879638671875	-146.2339782714844	948.2174682617188	-883.8778076171875	-24.8636360168457	1060.037841796875	-883.2511596679688	-272.8825988769531	818.1908569335938	-797.6307373046875	-259.170654296875	892.0838623046875	-811.2108764648438	-231.2806396484375	871.3695678710938	-873.3826293945312	124.4796752929688	1561.24951171875	-609.831787109375	23.2991828918457	1573.172607421875	-422.8557434082031	-18.99860572814941	1579.354736328125	-506.7698669433594	187.5260467529297	1540.844360351562	-479.2398986816406	112.097541809082	909.0446166992188	-410.4605407714844	-33.88631439208984	932.8245849609375	-717.3203735351562	-24.06620979309082	921.6796875	-464.1810302734375	-93.78694915771484	476.4431762695312	-502.0464477539062	-39.23236846923828	604.4427490234375	-453.109130859375	-69.45811462402344	41.44535064697266	-599.5990600585938	-88.26291656494141	243.6190795898438	-542.332275390625	-284.0994567871094	35.68540573120117	-634.0947265625	-217.0500640869141	27.10613250732422	-681.4669799804688	-190.5856475830078	40.84204864501953	-573.2620849609375	-33.20301818847656	31.2135181427002	-663.7025146484375	152.0809631347656	466.99267578125	-792.7116088867188	65.29328918457031	716.96630859375	-795.1317138671875	490.2886962890625	156.7603454589844	-794.3978881835938	219.5908966064453	361.1701965332031	-794.9120483398438	377.8997192382812	35.0941276550293	-730.508056640625	405.8839111328125	64.68510437011719	-693.58154296875	441.1202087402344	63.5536003112793	-808.1052856445312	518.851806640625	199.0404205322266	-745.70263671875	89.38019561767578	930.77685546875	-781.4846801757812	nan	nan	nan	
